<svg width="256" height="256" viewBox="0 0 256 256" fill="none" xmlns="http://www.w3.org/2000/svg">
<circle cx="128" cy="128" r="128" fill="#4A3AFF"/>
<path d="M200.411 92.5204C198.428 86.7466 193.831 81.7039 187.469 78.3247C181.826 75.3265 174.99 74.2021 168.473 73.3082C153.207 71.2115 139.262 70.3591 127.021 70.7738C126.977 70.7738 126.931 70.7738 126.885 70.7738C113.356 70.7753 100.553 71.5771 86.5911 73.2959C79.249 74.2006 73.2648 75.3802 67.9303 78.1895C61.5267 81.561 56.8312 86.7527 55.0464 92.4313C53.2493 98.1498 52.5043 104.298 51.9682 110.091C50.8224 122.457 50.9576 134.508 52.3845 146.931C53.2401 154.384 54.1908 160.913 57.1753 165.352C60.3701 170.105 65.1379 173.771 71.3433 176.25C76.9097 178.474 83.6527 179.192 90.1761 179.888C103.504 181.307 116.047 182.016 128.203 182.016C141.409 182.016 154.161 181.178 166.96 179.497C167.71 179.399 168.453 179.305 169.188 179.212C175.075 178.465 180.635 177.76 185.613 175.528C188.371 174.292 191.028 172.613 193.295 170.673C195.889 168.454 197.892 165.99 199.248 163.351C201.625 158.731 202.431 152.619 203.141 147.226C203.22 146.624 203.297 146.033 203.377 145.455C204.147 139.809 204.643 133.488 204.773 127.655C205.007 117.167 203.749 102.236 200.413 92.5188L200.411 92.5204ZM192.063 127.372C191.943 132.74 191.487 138.553 190.78 143.738C190.699 144.334 190.619 144.945 190.536 145.566C189.989 149.716 189.309 154.88 187.942 157.536C186.716 159.918 183.761 162.426 180.413 163.927C177.159 165.385 172.723 165.947 167.585 166.6C166.833 166.695 166.073 166.792 165.305 166.893C141.747 169.985 118.302 170.097 91.5201 167.245C86.118 166.67 79.997 166.018 76.0588 164.445C72.271 162.932 69.4663 160.851 67.7229 158.258C67.4679 157.878 66.8029 156.642 66.1408 153.364C65.6217 150.797 65.2976 147.973 65.0119 145.48C63.6863 133.938 63.5604 122.746 64.6248 111.263C65.0964 106.169 65.7323 100.825 67.173 96.239C67.9364 93.809 70.4939 91.2025 73.85 89.4361C77.4765 87.5268 82.1874 86.6452 88.1424 85.911C101.573 84.2567 113.881 83.4856 126.876 83.4841H126.9C126.998 83.4841 127.166 83.4872 127.369 83.481C138.907 83.0832 152.155 83.8988 166.741 85.9018C172.124 86.6406 177.7 87.5314 181.502 89.5513C184.956 91.3868 187.466 93.9734 188.384 96.6491C191.197 104.839 192.261 118.317 192.058 127.372H192.063Z" fill="white"/>
<path d="M128.004 136.811C114.581 136.811 103.075 132.023 92.8302 122.176L84.0213 131.343C96.5734 143.406 111.373 149.524 128.006 149.524C144.639 149.524 159.435 143.406 171.985 131.343L163.173 122.179C152.932 132.026 141.429 136.812 128.006 136.812L128.004 136.811Z" fill="white"/>
</svg>
