<svg width="121" height="19" viewBox="0 0 121 19" fill="none" xmlns="http://www.w3.org/2000/svg">
<path d="M24.9508 3.65346C24.619 2.68771 23.8503 1.84464 22.7867 1.27958C21.8427 0.778575 20.6998 0.590018 19.6102 0.440744C17.0574 0.0902224 14.7259 -0.0524033 12.6789 0.0170967C12.6717 0.0170967 12.6638 0.0170967 12.656 0.0170967C10.3939 0.0170967 8.2527 0.151262 5.9181 0.438931C4.69007 0.590018 3.68987 0.787639 2.79785 1.25722C1.72695 1.82107 0.941902 2.68892 0.643354 3.63835C0.342993 4.59443 0.218497 5.62303 0.12845 6.59119C-0.0631287 8.65927 -0.0407673 10.6742 0.19795 12.7513C0.341181 13.9975 0.500124 15.0895 0.999315 15.8317C1.53356 16.6264 2.33069 17.2392 3.36836 17.6538C4.29905 18.0255 5.42677 18.1457 6.51762 18.2618C8.74645 18.4993 10.8435 18.6177 12.8766 18.6177C15.0849 18.6177 17.217 18.4775 19.3576 18.1965C19.4833 18.1802 19.6072 18.1645 19.7299 18.1487C20.7144 18.0236 21.6438 17.9058 22.4766 17.5329C22.9377 17.3262 23.3819 17.0452 23.7609 16.7207C24.1948 16.3496 24.5296 15.9374 24.7562 15.4963C25.1539 14.7239 25.2881 13.7019 25.4071 12.8003C25.4204 12.6999 25.4337 12.6008 25.4464 12.5041C25.5751 11.5601 25.6579 10.5031 25.6797 9.52772C25.719 7.7739 25.5086 5.27734 24.9502 3.65225L24.9508 3.65346ZM23.5548 9.48179C23.5348 10.3792 23.4587 11.3516 23.3402 12.2183C23.3269 12.318 23.313 12.4201 23.2998 12.5241C23.2085 13.2179 23.0943 14.0815 22.8658 14.5257C22.661 14.9239 22.1666 15.3434 21.607 15.5942C21.0631 15.8377 20.3209 15.932 19.4621 16.0408C19.3364 16.0565 19.2089 16.0728 19.0808 16.0897C15.1417 16.607 11.2213 16.6252 6.74304 16.149C5.84014 16.0529 4.81638 15.9435 4.15764 15.6806C3.52428 15.4274 3.05531 15.0793 2.76401 14.6459C2.7211 14.5825 2.6099 14.3758 2.49931 13.8277C2.41288 13.3986 2.35849 12.926 2.31075 12.5096C2.08895 10.5799 2.0678 8.70822 2.24608 6.7876C2.32525 5.93608 2.43102 5.04225 2.67215 4.27533C2.79967 3.86921 3.22755 3.43347 3.78838 3.13795C4.39514 2.81885 5.18261 2.67139 6.17858 2.54871C8.42433 2.27192 10.4827 2.14319 12.6554 2.14259H12.6596C12.6759 2.14259 12.7037 2.14259 12.7382 2.14198C14.6678 2.0755 16.8828 2.21209 19.3219 2.5469C20.2224 2.67079 21.1543 2.81946 21.7901 3.15729C22.3678 3.4643 22.7873 3.89701 22.9408 4.34423C23.411 5.71368 23.5892 7.96729 23.5554 9.48118L23.5548 9.48179Z" fill="#453DFA"/>
<path d="M12.8433 11.0598C10.5988 11.0598 8.67514 10.2596 6.96181 8.61279L5.48901 10.1454C7.58791 12.1627 10.0627 13.1859 12.8439 13.1859C15.6251 13.1859 18.0993 12.1627 20.1976 10.1454L18.7242 8.61279C17.0115 10.259 15.0885 11.0598 12.8439 11.0598H12.8433Z" fill="#453DFA"/>
<path d="M38.0899 10.0271V14.9888H36.0769V10.4955C36.0769 9.05651 35.429 8.53556 34.4772 8.53556C33.3083 8.53556 32.6792 9.291 32.6792 10.3873V14.9888H30.6843V6.97211H32.3559L32.5003 7.94269C33.0031 7.20479 33.9919 6.7207 35.0706 6.7207C36.9223 6.7207 38.0912 7.96022 38.0912 10.0271H38.0899Z" fill="#040384"/>
<path d="M48.1681 6.97223V14.9889H46.2438V13.8558C45.7053 14.6825 44.6266 15.2228 43.3502 15.2228C41.1032 15.2228 39.5573 13.5499 39.5573 11.0159C39.5573 8.48189 41.1752 6.72021 43.5303 6.72021C44.7523 6.72021 45.7585 7.16985 46.3339 7.9966L46.4958 6.97223H48.1681ZM46.1362 10.9446C46.1362 9.4706 45.2194 8.51754 43.8711 8.51754C42.5228 8.51754 41.606 9.50565 41.606 10.9621C41.606 12.4186 42.5053 13.4067 43.8536 13.4067C45.2019 13.4067 46.1362 12.4186 46.1362 10.9446Z" fill="#040384"/>
<path d="M49.2976 8.19489L52.2456 4.79785H52.4613V6.9729H54.4206V8.62519H52.4613V12.0047C52.4613 12.7057 52.6414 13.3717 53.7196 13.3717C54.0079 13.3717 54.3312 13.3173 54.4206 13.2998V14.989C54.133 15.0434 53.6839 15.1147 53.2343 15.1147C50.4664 15.1147 50.4664 13.0115 50.4664 11.9866V8.62458H49.2976V8.19429V8.19489Z" fill="#040384"/>
<path d="M55.7653 6.97217H57.7784V14.9888H55.7653V6.97217Z" fill="#040384"/>
<path d="M61.0159 6.97217L61.9145 9.41676C62.3823 10.7282 63.0833 12.8507 63.0833 12.8507C63.0833 12.8507 63.8563 10.6394 64.3416 9.41676L65.2947 6.97217H67.3797L64.0364 14.9888H62.0408L58.8596 6.97217H61.0165H61.0159Z" fill="#040384"/>
<path d="M75.3915 11.5375H69.7118C69.7838 12.7057 70.7006 13.443 72.3897 13.443C73.3252 13.443 74.1339 13.2266 74.9963 12.8676V14.6825C74.1876 15.0427 73.0732 15.2228 72.1026 15.2228C69.2622 15.2228 67.68 13.478 67.68 10.9621C67.68 8.44623 69.3341 6.72021 71.6524 6.72021C73.9707 6.72021 75.4815 8.22927 75.4815 10.5669C75.4815 10.9253 75.4284 11.3574 75.3915 11.5375ZM73.4685 10.1354C73.4685 8.96718 72.678 8.37431 71.6355 8.37431C70.593 8.37431 69.7838 9.02097 69.73 10.1354H73.4691H73.4685Z" fill="#040384"/>
<path d="M85.1789 6.97223V14.9889H83.2559V13.8558C82.7168 14.6825 81.638 15.2228 80.3617 15.2228C78.1147 15.2228 76.5688 13.5499 76.5688 11.0159C76.5688 8.48189 78.1866 6.72021 80.5418 6.72021C81.7638 6.72021 82.77 7.16985 83.3453 7.9966L83.5073 6.97223H85.1795H85.1789ZM83.1477 10.9446C83.1477 9.4706 82.2309 8.51754 80.8826 8.51754C79.5343 8.51754 78.6175 9.50565 78.6175 10.9621C78.6175 12.4186 79.5162 13.4067 80.8651 13.4067C82.214 13.4067 83.1477 12.4186 83.1477 10.9446Z" fill="#040384"/>
<path d="M100.213 6.72082C101.166 6.72082 102.101 6.93597 102.765 7.24177V9.02157C101.992 8.62512 101.004 8.40997 100.213 8.40997C99.314 8.40997 98.9187 8.69825 98.9187 9.20046C98.9187 9.7758 99.459 9.86645 99.98 9.97463L101.004 10.1722C102.622 10.5131 103.305 11.4662 103.305 12.6168C103.305 14.2165 101.974 15.2234 99.8537 15.2234C98.7749 15.2234 97.733 14.9526 97.1383 14.648V12.8139C98.037 13.2997 99.0982 13.5324 99.9969 13.5324C100.841 13.5324 101.273 13.2629 101.273 12.7595C101.273 12.1491 100.644 12.0234 100.231 11.9327L99.3678 11.7526C98.506 11.5919 96.8869 11.1966 96.8869 9.36242C96.8869 7.74519 98.1458 6.72021 100.213 6.72021V6.72082Z" fill="#040384"/>
<path d="M104.419 13.9104C104.419 13.1918 104.959 12.5796 105.768 12.5796C106.578 12.5796 107.134 13.1912 107.134 13.9104C107.134 14.6295 106.576 15.2043 105.768 15.2043C104.96 15.2043 104.419 14.5939 104.419 13.9104Z" fill="#040384"/>
<path d="M116.668 6.97223V14.9889H114.745V13.8558C114.207 14.6825 113.128 15.2228 111.852 15.2228C109.605 15.2228 108.058 13.5499 108.058 11.0159C108.058 8.48189 109.677 6.72021 112.031 6.72021C113.253 6.72021 114.259 7.16985 114.834 7.9966L114.997 6.97223H116.668ZM114.637 10.9446C114.637 9.4706 113.72 8.51754 112.372 8.51754C111.024 8.51754 110.106 9.50565 110.106 10.9621C110.106 12.4186 111.006 13.4067 112.355 13.4067C113.703 13.4067 114.637 12.4186 114.637 10.9446Z" fill="#040384"/>
<path d="M118.671 6.97217H120.683V14.9888H118.671V6.97217Z" fill="#040384"/>
<path d="M57.7784 3.39453H55.7653V5.40761H57.7784V3.39453Z" fill="#040384"/>
<path d="M120.78 3.39453H118.767V5.40761H120.78V3.39453Z" fill="#040384"/>
<path d="M93.3261 3.39453V7.81715C92.7701 7.13363 91.8352 6.72086 90.6307 6.72086C88.3475 6.72086 86.7115 8.41001 86.7115 10.9628C86.7115 13.5155 88.3469 15.2234 90.6307 15.2234C91.9071 15.2234 92.9853 14.6656 93.5062 13.8213L93.6495 14.9895H95.3223V3.39514H93.3261V3.39453ZM91.0085 13.4068C89.6596 13.4068 88.7609 12.4187 88.7609 10.9622C88.7609 9.5057 89.6596 8.51759 91.026 8.51759C92.3924 8.51759 93.2911 9.47064 93.2911 10.944C93.2911 12.4174 92.3556 13.4062 91.0085 13.4062V13.4068Z" fill="#040384"/>
</svg>
