<svg width="26" height="19" viewBox="0 0 26 19" fill="none" xmlns="http://www.w3.org/2000/svg">
<path d="M24.9508 3.65346C24.619 2.68771 23.8503 1.84464 22.7867 1.27958C21.8427 0.778575 20.6998 0.590018 19.6102 0.440744C17.0574 0.0902224 14.7259 -0.0524033 12.6789 0.0170967C12.6717 0.0170967 12.6638 0.0170967 12.656 0.0170967C10.3939 0.0170967 8.2527 0.151262 5.9181 0.438931C4.69007 0.590018 3.68987 0.787639 2.79785 1.25722C1.72695 1.82107 0.941902 2.68892 0.643354 3.63835C0.342993 4.59443 0.218497 5.62303 0.12845 6.59119C-0.0631287 8.65927 -0.0407673 10.6742 0.19795 12.7513C0.341181 13.9975 0.500124 15.0895 0.999315 15.8317C1.53356 16.6264 2.33069 17.2392 3.36836 17.6538C4.29905 18.0255 5.42677 18.1457 6.51762 18.2618C8.74645 18.4993 10.8435 18.6177 12.8766 18.6177C15.0849 18.6177 17.217 18.4775 19.3576 18.1965C19.4833 18.1802 19.6072 18.1645 19.7299 18.1487C20.7144 18.0236 21.6438 17.9058 22.4766 17.5329C22.9377 17.3262 23.3819 17.0452 23.7609 16.7207C24.1948 16.3496 24.5296 15.9374 24.7562 15.4963C25.1539 14.7239 25.2881 13.7019 25.4071 12.8003C25.4204 12.6999 25.4337 12.6008 25.4464 12.5041C25.5751 11.5601 25.6579 10.5031 25.6797 9.52772C25.719 7.7739 25.5086 5.27734 24.9502 3.65225L24.9508 3.65346ZM23.5548 9.48179C23.5348 10.3792 23.4587 11.3516 23.3402 12.2183C23.3269 12.318 23.313 12.4201 23.2998 12.5241C23.2085 13.2179 23.0943 14.0815 22.8658 14.5257C22.661 14.9239 22.1666 15.3434 21.607 15.5942C21.0631 15.8377 20.3209 15.932 19.4621 16.0408C19.3364 16.0565 19.2089 16.0728 19.0808 16.0897C15.1417 16.607 11.2213 16.6252 6.74304 16.149C5.84014 16.0529 4.81638 15.9435 4.15764 15.6806C3.52428 15.4274 3.05531 15.0793 2.76401 14.6459C2.7211 14.5825 2.6099 14.3758 2.49931 13.8277C2.41288 13.3986 2.35849 12.926 2.31075 12.5096C2.08895 10.5799 2.0678 8.70822 2.24608 6.7876C2.32525 5.93608 2.43102 5.04225 2.67215 4.27533C2.79967 3.86921 3.22755 3.43347 3.78838 3.13795C4.39514 2.81885 5.18261 2.67139 6.17858 2.54871C8.42433 2.27192 10.4827 2.14319 12.6554 2.14259H12.6596C12.6759 2.14259 12.7037 2.14259 12.7382 2.14198C14.6678 2.0755 16.8828 2.21209 19.3219 2.5469C20.2224 2.67079 21.1543 2.81946 21.7901 3.15729C22.3678 3.4643 22.7873 3.89701 22.9408 4.34423C23.411 5.71368 23.5892 7.96729 23.5554 9.48118L23.5548 9.48179Z" fill="#453DFA"/>
<path d="M12.8433 11.0598C10.5988 11.0598 8.67514 10.2596 6.96181 8.61279L5.48901 10.1454C7.58791 12.1627 10.0627 13.1859 12.8439 13.1859C15.6251 13.1859 18.0993 12.1627 20.1976 10.1454L18.7242 8.61279C17.0115 10.259 15.0885 11.0598 12.8439 11.0598H12.8433Z" fill="#453DFA"/>
</svg>
